<mxfile host="app.diagrams.net" modified="2022-11-30T16:50:34.084Z" agent="5.0 (Windows NT 6.1; Win64; x64) AppleWebKit/537.36 (KHTML, like Gecko) Chrome/107.0.0.0 Safari/537.36" etag="UYiCqfbBQL8zs3oOfTCq" version="20.6.0" type="github">
  <diagram name="Page-1" id="74e2e168-ea6b-b213-b513-2b3c1d86103e">
    <mxGraphModel dx="868" dy="450" grid="1" gridSize="10" guides="1" tooltips="1" connect="1" arrows="1" fold="1" page="1" pageScale="1" pageWidth="1100" pageHeight="850" background="none" math="0" shadow="0">
      <root>
        <mxCell id="0" />
        <mxCell id="1" parent="0" />
        <mxCell id="77e6c97f196da883-1" value="Pool" style="swimlane;html=1;childLayout=stackLayout;startSize=20;rounded=0;shadow=0;labelBackgroundColor=none;strokeWidth=1;fontFamily=Verdana;fontSize=8;align=center;" parent="1" vertex="1">
          <mxGeometry x="70" y="40" width="960" height="750" as="geometry" />
        </mxCell>
        <mxCell id="77e6c97f196da883-3" value="Lane 2" style="swimlane;html=1;startSize=20;" parent="77e6c97f196da883-1" vertex="1">
          <mxGeometry y="20" width="160" height="730" as="geometry" />
        </mxCell>
        <mxCell id="ywSYerceBh0_hENrNNHX-7" value="Informar valor&lt;br&gt;do salário" style="shape=card;whiteSpace=wrap;html=1;rounded=1;glass=0;sketch=0;direction=south;verticalAlign=middle;flipH=1;" vertex="1" parent="77e6c97f196da883-3">
          <mxGeometry x="30" y="150" width="100" height="80" as="geometry" />
        </mxCell>
        <mxCell id="ywSYerceBh0_hENrNNHX-12" value="Início" style="strokeWidth=2;html=1;shape=mxgraph.flowchart.terminator;whiteSpace=wrap;rounded=1;glass=0;sketch=0;fontSize=14;" vertex="1" parent="77e6c97f196da883-3">
          <mxGeometry x="40" y="30" width="100" height="60" as="geometry" />
        </mxCell>
        <mxCell id="77e6c97f196da883-26" style="edgeStyle=orthogonalEdgeStyle;rounded=1;html=1;labelBackgroundColor=none;startArrow=none;startFill=0;startSize=5;endArrow=classicThin;endFill=1;endSize=5;jettySize=auto;orthogonalLoop=1;strokeWidth=1;fontFamily=Verdana;fontSize=8;exitX=0.5;exitY=1;exitDx=0;exitDy=0;exitPerimeter=0;" parent="77e6c97f196da883-3" source="ywSYerceBh0_hENrNNHX-12" edge="1">
          <mxGeometry relative="1" as="geometry">
            <mxPoint x="90" y="100" as="sourcePoint" />
            <mxPoint x="90" y="150" as="targetPoint" />
          </mxGeometry>
        </mxCell>
        <mxCell id="77e6c97f196da883-28" style="edgeStyle=orthogonalEdgeStyle;rounded=1;html=1;labelBackgroundColor=none;startArrow=none;startFill=0;startSize=5;endArrow=classicThin;endFill=1;endSize=5;jettySize=auto;orthogonalLoop=1;strokeWidth=1;fontFamily=Verdana;fontSize=8;exitX=1;exitY=0.5;exitDx=0;exitDy=0;" parent="77e6c97f196da883-3" source="ywSYerceBh0_hENrNNHX-13" edge="1">
          <mxGeometry relative="1" as="geometry">
            <mxPoint x="-35" y="350" as="sourcePoint" />
            <mxPoint x="88" y="410" as="targetPoint" />
          </mxGeometry>
        </mxCell>
        <mxCell id="ywSYerceBh0_hENrNNHX-13" value="Multiplicar&amp;nbsp;&lt;br&gt;salario * alíquota (7,5%)" style="rounded=1;whiteSpace=wrap;html=1;absoluteArcSize=1;arcSize=14;strokeWidth=2;glass=0;sketch=0;fontSize=14;direction=south;" vertex="1" parent="77e6c97f196da883-3">
          <mxGeometry x="35" y="280" width="105" height="65" as="geometry" />
        </mxCell>
        <mxCell id="77e6c97f196da883-27" style="edgeStyle=orthogonalEdgeStyle;rounded=1;html=1;labelBackgroundColor=none;startArrow=none;startFill=0;startSize=5;endArrow=classicThin;endFill=1;endSize=5;jettySize=auto;orthogonalLoop=1;strokeWidth=1;fontFamily=Verdana;fontSize=8" parent="77e6c97f196da883-3" edge="1">
          <mxGeometry relative="1" as="geometry">
            <Array as="points">
              <mxPoint x="90" y="260" />
              <mxPoint x="90" y="260" />
            </Array>
            <mxPoint x="90" y="230" as="sourcePoint" />
            <mxPoint x="90" y="280" as="targetPoint" />
          </mxGeometry>
        </mxCell>
        <mxCell id="ywSYerceBh0_hENrNNHX-14" value="Exibir resultado =&lt;br&gt;Valor do imposto" style="shape=document;whiteSpace=wrap;html=1;boundedLbl=1;rounded=1;glass=0;sketch=0;fontSize=14;" vertex="1" parent="77e6c97f196da883-3">
          <mxGeometry x="27.5" y="410" width="120" height="80" as="geometry" />
        </mxCell>
        <mxCell id="77e6c97f196da883-29" style="edgeStyle=orthogonalEdgeStyle;rounded=1;html=1;labelBackgroundColor=none;startArrow=none;startFill=0;startSize=5;endArrow=classicThin;endFill=1;endSize=5;jettySize=auto;orthogonalLoop=1;strokeWidth=1;fontFamily=Verdana;fontSize=8" parent="77e6c97f196da883-3" edge="1">
          <mxGeometry relative="1" as="geometry">
            <mxPoint x="87" y="480" as="sourcePoint" />
            <mxPoint x="87" y="535" as="targetPoint" />
          </mxGeometry>
        </mxCell>
        <mxCell id="ywSYerceBh0_hENrNNHX-15" value="Fim" style="strokeWidth=2;html=1;shape=mxgraph.flowchart.terminator;whiteSpace=wrap;rounded=1;glass=0;sketch=0;fontSize=14;" vertex="1" parent="77e6c97f196da883-3">
          <mxGeometry x="35" y="536" width="100" height="60" as="geometry" />
        </mxCell>
      </root>
    </mxGraphModel>
  </diagram>
</mxfile>
